<?xml version="1.0" standalone="no"?>
<!DOCTYPE svg PUBLIC "-//W3C//DTD SVG 20010904//EN"
 "http://www.w3.org/TR/2001/REC-SVG-20010904/DTD/svg10.dtd">
<svg version="1.0" xmlns="http://www.w3.org/2000/svg"
 width="612.000000pt" height="612.000000pt" viewBox="0 0 612.000000 612.000000"
 preserveAspectRatio="xMidYMid meet">

<g transform="translate(0.000000,612.000000) scale(0.100000,-0.100000)"
fill="#000000" stroke="none">
<path d="M4089 4907 c-47 -13 -91 -40 -122 -75 -18 -19 -18 -19 -92 9 -146 57
-190 63 -440 64 -220 0 -234 -1 -333 -28 -128 -34 -225 -74 -320 -133 l-72
-46 -47 41 c-135 120 -326 77 -416 -93 -17 -32 -22 -58 -22 -121 0 -70 4 -87
30 -134 16 -30 46 -67 66 -83 l37 -30 -34 -74 c-85 -187 -140 -393 -200 -753
-53 -319 -77 -415 -150 -614 -107 -289 -144 -419 -160 -564 -3 -35 -9 -63 -13
-63 -3 0 -26 31 -51 68 -60 89 -218 246 -308 306 -137 91 -274 136 -412 136
-196 0 -347 -80 -420 -225 -28 -56 -34 -80 -38 -152 -6 -102 8 -172 53 -270
115 -249 334 -427 712 -577 171 -68 444 -126 593 -126 l63 0 67 -64 c129 -122
282 -189 523 -232 193 -33 467 -27 576 15 56 21 118 65 126 90 5 15 23 17 183
17 140 -1 194 3 260 18 77 18 86 18 110 4 43 -26 130 -48 242 -63 261 -36 464
-3 558 90 39 40 42 46 42 97 0 74 -30 117 -108 155 -2 0 13 23 33 49 51 67
109 186 131 269 24 93 24 255 -1 350 -23 93 -68 183 -122 246 -36 42 -43 58
-43 93 0 36 6 48 41 81 138 135 176 335 95 500 -19 39 -53 92 -75 116 l-39 45
18 41 c51 113 66 357 35 539 -37 209 -154 459 -298 636 l-46 57 31 60 c96 186
-48 381 -243 328z m-439 -108 c113 -17 215 -46 291 -84 38 -19 73 -35 80 -35
7 0 9 17 7 48 -3 47 -3 47 42 70 76 39 157 15 187 -55 19 -46 10 -95 -28 -151
-16 -24 -29 -53 -29 -66 0 -12 22 -51 50 -85 113 -141 207 -311 254 -461 67
-211 74 -503 16 -667 -29 -82 -26 -98 24 -154 92 -102 128 -239 92 -351 -25
-78 -72 -149 -119 -183 -37 -26 -50 -30 -110 -30 -63 0 -71 2 -93 28 -32 37
-30 58 10 171 42 114 53 180 36 201 -19 23 -39 18 -52 -12 -6 -16 -31 -71 -54
-123 -53 -115 -66 -178 -53 -240 12 -56 33 -81 90 -111 36 -19 58 -23 122 -22
l77 1 0 -102 c0 -326 -88 -593 -254 -772 -82 -90 -149 -141 -257 -198 -161
-86 -321 -126 -498 -126 -148 0 -166 5 -187 52 -27 61 -89 108 -186 141 -15 5
-13 13 18 64 48 79 65 141 71 254 13 240 -98 467 -293 596 -57 38 -97 41 -102
8 -2 -14 20 -42 69 -90 169 -165 250 -371 221 -568 -19 -131 -76 -220 -170
-265 -65 -32 -82 -53 -62 -77 11 -13 23 -15 54 -10 85 14 142 9 198 -18 118
-55 132 -144 32 -195 -69 -36 -392 -40 -564 -7 -339 64 -525 207 -620 476 -38
106 -50 181 -57 344 -11 279 20 428 171 822 51 133 91 290 131 523 50 287 90
478 123 581 6 19 23 72 38 119 15 47 42 118 60 159 44 96 44 125 2 147 -134
68 -145 252 -21 333 72 47 146 37 218 -30 23 -21 50 -57 60 -79 14 -31 23 -40
39 -38 16 2 22 12 26 40 6 41 23 58 120 110 217 117 491 158 780 117z m979
-2613 c58 -178 44 -349 -42 -509 -34 -65 -58 -95 -117 -153 -67 -65 -63 -82
26 -102 68 -15 94 -35 94 -72 0 -99 -248 -144 -550 -99 -108 16 -111 18 -54
46 166 84 343 240 420 369 91 155 157 361 171 533 5 72 8 81 19 66 7 -10 22
-45 33 -79z"/>
<path d="M4072 4165 c-71 -60 -54 -198 30 -245 35 -20 45 -21 77 -11 71 21
105 86 89 171 -17 98 -126 144 -196 85z"/>
<path d="M3000 4142 c-52 -26 -80 -74 -80 -139 0 -62 18 -103 58 -132 45 -32
75 -35 125 -13 78 35 108 132 66 219 -14 30 -33 50 -60 63 -47 24 -64 25 -109
2z"/>
<path d="M3601 3969 c-80 -16 -120 -53 -121 -113 0 -45 34 -97 81 -121 16 -9
29 -19 29 -23 0 -4 -36 -27 -80 -50 -97 -52 -156 -57 -196 -17 -53 53 -102 52
-118 -3 -11 -40 11 -75 70 -110 33 -19 51 -22 114 -20 l74 3 8 -43 c10 -57 28
-91 61 -116 25 -19 43 -21 145 -21 194 0 247 32 265 159 11 74 12 76 39 76 39
0 88 22 116 52 31 34 39 89 17 111 -27 28 -58 20 -100 -24 l-39 -41 -58 6
c-32 4 -73 13 -90 20 -18 7 -42 16 -53 20 -18 7 -16 11 21 45 50 45 64 70 64
113 0 45 -28 74 -92 93 -56 16 -90 17 -157 4z m59 -396 c18 -91 20 -94 43 -91
18 2 23 12 29 53 5 28 6 58 4 68 -5 21 12 22 63 1 33 -13 40 -21 43 -50 7 -60
-3 -104 -26 -116 -11 -6 -69 -14 -127 -16 -104 -4 -107 -4 -122 19 -8 13 -17
47 -19 76 -5 51 -4 53 31 77 20 13 43 26 51 29 8 3 16 6 17 6 1 1 7 -25 13
-56z"/>
<path d="M3070 3085 c0 -37 49 -106 146 -206 108 -112 124 -142 109 -207 -24
-112 -224 -124 -358 -21 -25 19 -71 69 -102 112 -45 60 -63 77 -79 75 -18 -3
-21 -10 -20 -48 1 -61 27 -112 94 -180 125 -127 325 -172 460 -105 25 13 53
31 62 42 53 59 64 182 24 261 -26 50 -101 133 -163 179 -21 15 -58 47 -83 70
-46 43 -90 57 -90 28z"/>
</g>
</svg>
